{"title":"Burlesque 2010 XviD DvDrip DragonTrG","uid":6149664,"size":1302702526,"categoryP":"video","categoryS":"movies","magnet":"?xt=urn:btih:d98c1bfce0151ba002a18dd27dd1862bb6b62470&amp;dn=Burlesque+2010+XviD+DvDrip+DragonTrG&amp;tr=udp%3A%2F%2Ftracker.openbittorrent.com%3A80&amp;tr=udp%3A%2F%2Fopen.demonii.com%3A1337&amp;tr=udp%3A%2F%2Ftracker.coppersurfer.tk%3A6969&amp;tr=udp%3A%2F%2Fexodus.desync.com%3A6969","seeders":1,"leechers":0,"uploader":"SAFCukO09","files":3,"time":1296834335,"description":"Format : AVI\nFormat/Info : Audio Video Interleave\nFile size : 1.21 GiB\nDuration : 1h 58mn\nOverall bit rate : 1 469 Kbps\nWriting library : VirtualDub build 32839/release\n\nVideo\nID : 0\nFormat : MPEG-4 Visual\nFormat profile : Advanced Simple@L5\nFormat settings, BVOP : Yes\nFormat settings, QPel : No\nFormat settings, GMC : No warppoints\nFormat settings, Matrix : Custom\nCodec ID : XVID\nCodec ID/Hint : XviD\nDuration : 1h 58mn\nBit rate : 1 011 Kbps\nWidth : 672 pixels\nHeight : 286 pixels\nDisplay aspect ratio : 2.35:1\nFrame rate : 23.976 fps\nColor space : YUV\nChroma subsampling : 4:2:0\nBit depth : 8 bits\nScan type : Progressive\nBits/(Pixel*Frame) : 0.220\nStream size : 855 MiB (69%)\nWriting library : XviD 1.2.1 (UTC 2008-12-04)\n\nAudio\nID : 1\nFormat : AC-3\nFormat/Info : Audio Coding 3\nMode extension : CM (complete main)\nCodec ID : 2000\nDuration : 1h 58mn\nBit rate mode : Constant\nBit rate : 448 Kbps\nChannel(s) : 6 channels\nChannel positions : Front: L C R, Side: L R, LFE\nSampling rate : 48.0 KHz\nBit depth : 16 bits\nStream size : 379 MiB (31%)\nAlignment : Split accross interleaves\nInterleave, duration : 42 ms (1.00 video frame)\nInterleave, preload duration : 500 ms\n\n &lt;a href=&quot;\nhttp://www.imdb.com/title/tt1126591/&quot; rel=&quot;nofollow&quot; target=&quot;_NEW&quot;&gt;\nhttp://www.imdb.com/title/tt1126591/&lt;/a&gt;\n\nUsers: 6.2/10 (4,637 votes) 106 reviews | Critics: 128 reviews Metascore: 48/100 (based on 38 reviews from Metacritic.com)\n\nA small-town girl ventures to Los Angeles and finds her place in a neo-burlesque club run by a former dancer.\nDirector:\nSteve Antin\nWriter:\nSteve Antin\nStars:\nCher, Christina Aguilera and Alan Cumming\n","torrent":{"xt":"urn:btih:d98c1bfce0151ba002a18dd27dd1862bb6b62470","amp;dn":"Burlesque+2010+XviD+DvDrip+DragonTrG","amp;tr":["udp%3A%2F%2Ftracker.openbittorrent.com%3A80","udp%3A%2F%2Fopen.demonii.com%3A1337","udp%3A%2F%2Ftracker.coppersurfer.tk%3A6969","udp%3A%2F%2Fexodus.desync.com%3A6969"],"infoHash":"d98c1bfce0151ba002a18dd27dd1862bb6b62470","infoHashBuffer":{"type":"Buffer","data":[217,140,27,252,224,21,27,160,2,161,141,210,125,209,134,43,182,182,36,112]},"announce":[],"urlList":[]}}